<?xml version="1.0" encoding="UTF-8"?>
<svg id="Layer_2" data-name="Layer 2" xmlns="http://www.w3.org/2000/svg" viewBox="0 0 63.23 36.03">
  <defs>
    <style>
      .cls-1 {
        fill: #fff;
      }
    </style>
  </defs>
  <g id="Layer_1-2" data-name="Layer 1">
    <g>
      <g>
        <path class="cls-1" d="M0,12.48l1.8-1.79c.85,1.19,2.58,1.79,4.19,1.79,1.82,0,2.77-.8,2.77-1.94,0-.93-.64-1.6-2.15-1.9l-1.92-.39c-2.6-.52-3.95-1.88-3.95-3.78C.73,1.94,3.12,0,6.53,0c2.15,0,4.33,.78,5.25,2.03l-1.87,1.71c-.73-1.04-2.18-1.53-3.5-1.53-1.73,0-2.7,.84-2.7,1.96,0,1.01,.78,1.58,2.13,1.86l1.92,.39c2.51,.5,3.97,1.86,3.97,3.82,0,2.5-2.36,4.45-5.99,4.45-2.27,0-4.71-.8-5.75-2.2Z"/>
        <path class="cls-1" d="M13.6,12.11c0-2.16,2.41-2.61,4.49-2.83,1.47-.15,2.06-.24,2.06-1.17s-.57-1.32-1.82-1.32c-1.18,0-1.99,.41-2.39,1.17l-1.82-.99c.76-1.36,2.48-2.07,4.54-2.07,2.58,0,4.19,1.12,4.19,3.56v6h-2.65v-1.4c-.57,1.08-1.68,1.62-3.24,1.62-2.08,0-3.36-.95-3.36-2.57Zm6.58-1.38v-.89c-.31,.52-.78,.67-1.75,.78-.99,.13-2.2,.26-2.2,1.3,0,.69,.47,1.14,1.54,1.14,1.4,0,2.41-.69,2.41-2.33Z"/>
        <path class="cls-1" d="M26.13,5.12h.9c.99,0,1.37-.04,1.8-.17v1.9c.66-1.25,2.06-1.94,3.74-1.94,2.18,0,3.52,1.14,3.52,3.41v6.15h-2.7v-5.68c0-1.3-.59-1.77-1.77-1.77-1.68,0-2.79,.99-2.79,2.74v4.71h-2.7V5.12Z"/>
        <path class="cls-1" d="M38.59,9.78c0-2.66,2.32-4.88,4.87-4.88,1.58,0,2.89,.89,3.45,2.07V.22h.9c.97,0,1.37-.02,1.8-.15V14.47h-2.7v-1.86c-.57,1.19-1.84,2.07-3.45,2.07-2.55,0-4.87-2.22-4.87-4.9Zm8.4,0c0-1.66-1.35-2.83-2.79-2.83-1.58,0-2.84,1.17-2.84,2.83s1.25,2.85,2.84,2.85c1.44,0,2.79-1.19,2.79-2.85Z"/>
        <path class="cls-1" d="M55.66,14.29l-4.19-9.18h2.77l2.89,6.65,2.89-6.65h2.48l-6.32,13.89h-2.7l2.17-4.71Z"/>
      </g>
      <g>
        <path class="cls-1" d="M5.23,21.56h2.7l5.25,14.25h-2.87l-1.01-3.02H3.78l-1.04,3.02H0l5.23-14.25Zm-.84,9.26h4.32l-2.16-6.33-2.16,6.33Z"/>
        <path class="cls-1" d="M14.04,31.12c0-2.66,2.12-4.88,4.45-4.88,1.45,0,2.64,.89,3.15,2.07v-6.76h.82c.89,0,1.25-.02,1.64-.15v14.4h-2.46v-1.86c-.52,1.19-1.68,2.07-3.15,2.07-2.33,0-4.45-2.22-4.45-4.9Zm7.67,0c0-1.66-1.23-2.83-2.55-2.83-1.45,0-2.59,1.17-2.59,2.83s1.14,2.85,2.59,2.85c1.32,0,2.55-1.19,2.55-2.85Z"/>
        <path class="cls-1" d="M26.23,34.62l1.25-1.45c.5,.58,1.34,1.08,2.68,1.08,1.17,0,1.88-.39,1.88-1.08,0-.47-.33-.82-1.34-.99l-1.53-.26c-1.73-.3-2.55-1.34-2.55-2.57,0-1.84,1.84-3.11,4.12-3.11,1.58,0,2.94,.6,3.54,1.51l-1.32,1.38c-.48-.69-1.34-1.12-2.38-1.12-.95,0-1.58,.39-1.58,1.08,0,.56,.35,.89,1.49,1.08l1.29,.22c1.77,.32,2.64,1.27,2.64,2.5,0,1.9-1.92,3.13-4.45,3.13-1.66,0-3.15-.54-3.76-1.4Z"/>
        <path class="cls-1" d="M35.97,31.17c0-2.66,2.25-4.92,4.84-4.92s4.6,2.14,4.6,5.29h-6.93c.04,1.45,1.06,2.59,2.79,2.59,1.21,0,1.94-.52,2.33-1.4l1.75,.95c-.71,1.4-2.12,2.35-4.17,2.35-3,0-5.2-2.2-5.2-4.86Zm2.53-1.01h4.45c-.11-1.23-.93-2.22-2.2-2.22s-2.1,1.04-2.25,2.22Z"/>
        <path class="cls-1" d="M48.01,32.22v-3.87h-1.71v-1.64h.19c1.53,0,2.16-.97,2.16-2.38v-.84h.17c.8,0,1.21-.02,1.64-.17v3.13h3.52v1.9h-3.52v4.23c0,1.06,.52,1.53,1.19,1.53,.63,0,1.14-.43,1.47-1.06l1.68,1.08c-.54,1.21-1.77,1.88-3.22,1.88-2.18,0-3.59-1.49-3.59-3.8Z"/>
        <path class="cls-1" d="M56.43,32.22v-3.87h-1.71v-1.64h.19c1.53,0,2.16-.97,2.16-2.38v-.84h.17c.8,0,1.21-.02,1.64-.17v3.13h3.52v1.9h-3.52v4.23c0,1.06,.52,1.53,1.19,1.53,.63,0,1.14-.43,1.47-1.06l1.68,1.08c-.54,1.21-1.77,1.88-3.22,1.88-2.18,0-3.59-1.49-3.59-3.8Z"/>
      </g>
    </g>
  </g>
</svg>